<?xml version="1.0" encoding="UTF-8" standalone="no"?>
<!-- Generated by IcoMoon.io -->

<svg
   xmlns:dc="http://purl.org/dc/elements/1.1/"
   xmlns:cc="http://creativecommons.org/ns#"
   xmlns:rdf="http://www.w3.org/1999/02/22-rdf-syntax-ns#"
   xmlns:svg="http://www.w3.org/2000/svg"
   xmlns="http://www.w3.org/2000/svg"
   xmlns:sodipodi="http://sodipodi.sourceforge.net/DTD/sodipodi-0.dtd"
   xmlns:inkscape="http://www.inkscape.org/namespaces/inkscape"
   version="1.1"
   width="64"
   height="64"
   viewBox="0 0 64 64"
   id="svg3024"
   inkscape:version="0.48.3.1 r9886"
   sodipodi:docname="cloud.svg"
   inkscape:export-filename="/data/github/seafile-client/images/sync/cloud.png"
   inkscape:export-xdpi="39.375"
   inkscape:export-ydpi="39.375">
  <metadata
     id="metadata3032">
    <rdf:RDF>
      <cc:Work
         rdf:about="">
        <dc:format>image/svg+xml</dc:format>
        <dc:type
           rdf:resource="http://purl.org/dc/dcmitype/StillImage" />
        <dc:title></dc:title>
      </cc:Work>
    </rdf:RDF>
  </metadata>
  <defs
     id="defs3030" />
  <sodipodi:namedview
     pagecolor="#ffffff"
     bordercolor="#666666"
     borderopacity="1"
     objecttolerance="10"
     gridtolerance="10"
     guidetolerance="10"
     inkscape:pageopacity="0"
     inkscape:pageshadow="2"
     inkscape:window-width="1215"
     inkscape:window-height="776"
     id="namedview3028"
     showgrid="false"
     inkscape:zoom="9.95"
     inkscape:cx="14.311558"
     inkscape:cy="41.528503"
     inkscape:window-x="65"
     inkscape:window-y="24"
     inkscape:window-maximized="1"
     inkscape:current-layer="svg3024" />
  <path
     d="m 64.286,42.571 q 0,5.324 -3.767,9.09 -3.767,3.766 -9.09,3.767 H 15 Q 8.806,55.428 4.403,51.025 0,46.622 0,40.428 0,36.008 2.377,32.342 4.754,28.676 8.638,26.868 8.571,25.93 8.571,25.428 q 0,-7.098 5.022,-12.121 5.022,-5.023 12.121,-5.022 5.29,0 9.593,2.946 4.303,2.946 6.278,7.701 2.344,-2.076 5.558,-2.076 3.549,0 6.06,2.511 2.511,2.511 2.511,6.06 0,2.511 -1.373,4.621 4.319,1.004 7.132,4.503 2.813,3.499 2.813,8.019 z"
     id="path3026"
     inkscape:connector-curvature="0"
     style="fill:#f17f49;fill-opacity:1" />
</svg>
