<?xml version="1.0" encoding="utf-8"?>
<!-- Generated by IcoMoon.io -->
<!DOCTYPE svg PUBLIC "-//W3C//DTD SVG 1.1//EN" "http://www.w3.org/Graphics/SVG/1.1/DTD/svg11.dtd">
<svg version="1.1" xmlns="http://www.w3.org/2000/svg" xmlns:xlink="http://www.w3.org/1999/xlink" width="21" height="60" viewBox="0 0 21 60">
	<path d="M17.143 41.786v7.5q0 0.871-0.636 1.507t-1.507 0.636h-8.571q-0.871 0-1.507-0.636t-0.636-1.507v-7.5q0-0.871 0.636-1.507t1.507-0.636h8.571q0.871 0 1.507 0.636t0.636 1.507zM18.147 6.429l-0.938 25.714q-0.033 0.871-0.686 1.507t-1.523 0.636h-8.571q-0.871 0-1.523-0.636t-0.686-1.507l-0.938-25.714q-0.033-0.871 0.586-1.507t1.49-0.636h10.714q0.871 0 1.49 0.636t0.586 1.507z" />
</svg>
