<?xml version="1.0" encoding="utf-8"?>
<!-- Generated by IcoMoon.io -->
<!DOCTYPE svg PUBLIC "-//W3C//DTD SVG 1.1//EN" "http://www.w3.org/Graphics/SVG/1.1/DTD/svg11.dtd">
<svg version="1.1" xmlns="http://www.w3.org/2000/svg" xmlns:xlink="http://www.w3.org/1999/xlink" width="51" height="60" viewBox="0 0 51 60">
	<path d="M40.714 32.143v-4.286q0-0.871-0.636-1.507t-1.507-0.636h-25.714q-0.871 0-1.507 0.636t-0.636 1.507v4.286q0 0.871 0.636 1.507t1.507 0.636h25.714q0.871 0 1.507-0.636t0.636-1.507zM51.429 30q0 6.998-3.449 12.907t-9.358 9.358-12.907 3.449-12.907-3.449-9.358-9.358-3.449-12.907 3.449-12.907 9.358-9.358 12.907-3.449 12.907 3.449 9.358 9.358 3.449 12.907z" />
</svg>
