<?xml version="1.0" encoding="utf-8"?>
<!-- Generated by IcoMoon.io -->
<!DOCTYPE svg PUBLIC "-//W3C//DTD SVG 1.1//EN" "http://www.w3.org/Graphics/SVG/1.1/DTD/svg11.dtd">
<svg version="1.1" xmlns="http://www.w3.org/2000/svg" xmlns:xlink="http://www.w3.org/1999/xlink" width="34" height="60" viewBox="0 0 34 60">
	<path d="M23.571 42.054v8.036q0 0.536-0.402 0.938t-0.938 0.402h-8.036q-0.536 0-0.938-0.402t-0.402-0.938v-8.036q0-0.536 0.402-0.938t0.938-0.402h8.036q0.536 0 0.938 0.402t0.402 0.938zM34.152 21.964q0 1.808-0.519 3.382t-1.172 2.561-1.842 1.992-1.925 1.456-2.042 1.189q-1.373 0.77-2.294 2.176t-0.921 2.243q0 0.569-0.402 1.088t-0.938 0.519h-8.036q-0.502 0-0.854-0.619t-0.352-1.256v-1.507q0-2.779 2.176-5.24t4.788-3.633q1.975-0.904 2.813-1.875t0.837-2.545q0-1.406-1.557-2.478t-3.599-1.071q-2.176 0-3.616 0.971-1.172 0.837-3.583 3.85-0.435 0.536-1.038 0.536-0.402 0-0.837-0.268l-5.491-4.185q-0.435-0.335-0.519-0.837t0.184-0.938q5.357-8.906 15.536-8.906 2.679 0 5.391 1.038t4.888 2.779 3.549 4.269 1.373 5.307z" />
</svg>
