<?xml version="1.0" encoding="utf-8"?>
<!-- Generated by IcoMoon.io -->
<!DOCTYPE svg PUBLIC "-//W3C//DTD SVG 1.1//EN" "http://www.w3.org/Graphics/SVG/1.1/DTD/svg11.dtd">
<svg version="1.1" xmlns="http://www.w3.org/2000/svg" xmlns:xlink="http://www.w3.org/1999/xlink" width="51" height="60" viewBox="0 0 51 60">
	<path d="M50.592 35.357q0 0.167-0.033 0.234-2.143 8.973-8.973 14.548t-16.004 5.575q-4.888 0-9.459-1.842t-8.153-5.257l-4.319 4.319q-0.636 0.636-1.507 0.636t-1.507-0.636-0.636-1.507v-15q0-0.871 0.636-1.507t1.507-0.636h15q0.871 0 1.507 0.636t0.636 1.507-0.636 1.507l-4.587 4.587q2.377 2.21 5.391 3.415t6.261 1.205q4.487 0 8.371-2.176t6.228-5.993q0.368-0.569 1.775-3.917 0.268-0.77 1.004-0.77h6.429q0.435 0 0.753 0.318t0.318 0.753zM51.429 8.571v15q0 0.871-0.636 1.507t-1.507 0.636h-15q-0.871 0-1.507-0.636t-0.636-1.507 0.636-1.507l4.621-4.621q-4.955-4.587-11.685-4.587-4.487 0-8.371 2.176t-6.228 5.993q-0.368 0.569-1.775 3.917-0.268 0.77-1.004 0.77h-6.663q-0.435 0-0.753-0.318t-0.318-0.753v-0.234q2.176-8.973 9.040-14.548t16.071-5.575q4.888 0 9.509 1.858t8.203 5.24l4.353-4.319q0.636-0.636 1.507-0.636t1.507 0.636 0.636 1.507z" />
</svg>
