<?xml version="1.0" encoding="UTF-8" standalone="no"?>
<!-- Created with Inkscape (http://www.inkscape.org/) -->

<svg
   xmlns:dc="http://purl.org/dc/elements/1.1/"
   xmlns:cc="http://creativecommons.org/ns#"
   xmlns:rdf="http://www.w3.org/1999/02/22-rdf-syntax-ns#"
   xmlns:svg="http://www.w3.org/2000/svg"
   xmlns="http://www.w3.org/2000/svg"
   xmlns:xlink="http://www.w3.org/1999/xlink"
   xmlns:sodipodi="http://sodipodi.sourceforge.net/DTD/sodipodi-0.dtd"
   xmlns:inkscape="http://www.inkscape.org/namespaces/inkscape"
   width="512"
   height="512"
   id="svg2"
   version="1.1"
   inkscape:version="0.48.4 r9939"
   sodipodi:docname="encrypted-repo.svg"
   inkscape:export-filename="/data/seafile/seafile-dev/icons/android/encrypted-repo.png"
   inkscape:export-xdpi="90"
   inkscape:export-ydpi="90">
  <defs
     id="defs4">
    <linearGradient
       id="linearGradient3755">
      <stop
         style="stop-color:#fffdff;stop-opacity:1;"
         offset="0"
         id="stop3757" />
      <stop
         style="stop-color:#ffffff;stop-opacity:0;"
         offset="1"
         id="stop3759" />
    </linearGradient>
    <linearGradient
       inkscape:collect="always"
       xlink:href="#linearGradient3755"
       id="linearGradient3761"
       x1="244.51807"
       y1="-3054.0679"
       x2="3283.4343"
       y2="384.06818"
       gradientUnits="userSpaceOnUse"
       gradientTransform="matrix(1.0241121,0,0,1.0218212,8.8905282,54.809579)" />
  </defs>
  <sodipodi:namedview
     id="base"
     pagecolor="#ffffff"
     bordercolor="#666666"
     borderopacity="1.0"
     inkscape:pageopacity="0.0"
     inkscape:pageshadow="2"
     inkscape:zoom="0.36091908"
     inkscape:cx="240.3026"
     inkscape:cy="605.06368"
     inkscape:document-units="px"
     inkscape:current-layer="g3030"
     showgrid="false"
     inkscape:window-width="1317"
     inkscape:window-height="744"
     inkscape:window-x="49"
     inkscape:window-y="24"
     inkscape:window-maximized="1" />
  <metadata
     id="metadata7">
    <rdf:RDF>
      <cc:Work
         rdf:about="">
        <dc:format>image/svg+xml</dc:format>
        <dc:type
           rdf:resource="http://purl.org/dc/dcmitype/StillImage" />
        <dc:title />
      </cc:Work>
    </rdf:RDF>
  </metadata>
  <g
     inkscape:label="Layer 1"
     inkscape:groupmode="layer"
     id="layer1"
     transform="translate(0,-540.36218)">
    <g
       id="g3030"
       transform="matrix(0.140625,0,0,0.140625,-13.419643,933.46303)">
      <g
         transform="translate(95.428571,333.50504)"
         id="g2995"
         style="fill:#666666">
        <path
           inkscape:connector-curvature="0"
           d="m 3279.4427,497.45117 -2356.84334,0 0,-3583.34677 1122.30634,0 0,2015.6326 336.6919,-447.9184 224.4612,0 336.6919,447.9184 0,-2015.6326 336.692,0 c 62.0635,0 112.2306,50.1668 112.2306,111.9795 l 0,3359.38769 c 0,61.9247 -50.1671,111.97958 -112.2306,111.97958 z M 249.21552,385.47159 l 0,-3359.38769 c 0,-61.8127 50.16709,-111.9795 112.23064,-111.9795 l 336.69191,0 0,3583.34677 -336.69191,0 c -62.06355,0 -112.23064,-50.05488 -112.23064,-111.97958 z"
           id="path2987"
           style="fill:#999999;stroke:url(#linearGradient3761);stroke-width:29.09770203;stroke-miterlimit:4;stroke-dasharray:none"
           inkscape:export-filename="/Users/poet/repo2.png"
           inkscape:export-xdpi="90"
           inkscape:export-ydpi="90" />
      </g>
      <g
         transform="matrix(3.1854443,0,0,3.1854443,2476.7989,-511.48794)"
         id="g3008"
         style="fill:#ffffff">
        <path
           style="fill:#ffffff"
           inkscape:connector-curvature="0"
           d="m 176,256 q 0,-13.25 -9.375,-22.625 Q 157.25,224 144,224 130.75,224 121.375,233.375 112,242.75 112,256 q 0,9.25 4.75,16.75 4.75,7.5 12.75,11.75 l -17.25,57.25 q -1.25,3.75 1.25,7 2.5,3.25 6.5,3.25 l 48,0 q 4,0 6.5,-3.25 2.5,-3.25 1.25,-7 L 158.5,284.5 q 8,-4.25 12.75,-11.75 Q 176,265.25 176,256 z m -96,-64 128,0 0,-48 Q 208,117.5 189.25,98.75 170.5,80 144,80 117.5,80 98.75,98.75 80,117.5 80,144 l 0,48 z m 208,24 0,144 q 0,10 -7,17 -7,7 -17,7 L 24,384 Q 14,384 7,377 0,370 0,360 L 0,216 q 0,-10 7,-17 7,-7 17,-7 l 8,0 0,-48 q 0,-46 33,-79 33,-33 79,-33 46,0 79,33 33,33 33,79 l 0,48 8,0 q 10,0 17,7 7,7 7,17 z"
           id="path3000" />
      </g>
    </g>
  </g>
</svg>
