<?xml version="1.0" encoding="UTF-8" standalone="no"?>
<!-- Created with Inkscape (http://www.inkscape.org/) -->

<svg
   xmlns:dc="http://purl.org/dc/elements/1.1/"
   xmlns:cc="http://creativecommons.org/ns#"
   xmlns:rdf="http://www.w3.org/1999/02/22-rdf-syntax-ns#"
   xmlns:svg="http://www.w3.org/2000/svg"
   xmlns="http://www.w3.org/2000/svg"
   xmlns:sodipodi="http://sodipodi.sourceforge.net/DTD/sodipodi-0.dtd"
   xmlns:inkscape="http://www.inkscape.org/namespaces/inkscape"
   width="72"
   height="72"
   id="svg2"
   version="1.1"
   inkscape:version="0.48.2 r9819"
   sodipodi:docname="encrypted-repo.svg"
   inkscape:export-filename="/data/seafile/seafile-dev/icons/android/encrypted-repo.png"
   inkscape:export-xdpi="90"
   inkscape:export-ydpi="90">
  <defs
     id="defs4" />
  <sodipodi:namedview
     id="base"
     pagecolor="#ffffff"
     bordercolor="#666666"
     borderopacity="1.0"
     inkscape:pageopacity="0.0"
     inkscape:pageshadow="2"
     inkscape:zoom="5.7747052"
     inkscape:cx="69.074214"
     inkscape:cy="29.813273"
     inkscape:document-units="px"
     inkscape:current-layer="g2995"
     showgrid="false"
     inkscape:window-width="1280"
     inkscape:window-height="709"
     inkscape:window-x="0"
     inkscape:window-y="0"
     inkscape:window-maximized="1" />
  <metadata
     id="metadata7">
    <rdf:RDF>
      <cc:Work
         rdf:about="">
        <dc:format>image/svg+xml</dc:format>
        <dc:type
           rdf:resource="http://purl.org/dc/dcmitype/StillImage" />
        <dc:title></dc:title>
      </cc:Work>
    </rdf:RDF>
  </metadata>
  <g
     inkscape:label="Layer 1"
     inkscape:groupmode="layer"
     id="layer1"
     transform="translate(0,-980.36218)">
    <g
       id="g3030"
       transform="matrix(0.140625,0,0,0.140625,-13.419643,933.46303)">
      <g
         transform="translate(95.428571,333.50504)"
         id="g2995"
         style="fill:#666666">
        <path
           inkscape:connector-curvature="0"
           d="m 464,512 -336,0 0,-512 160,0 0,288 48,-64 32,0 48,64 0,-288 48,0 c 8.848,0 16,7.168 16,16 l 0,480 c 0,8.848 -7.152,16 -16,16 z M 32,496 32,16 C 32,7.168 39.152,0 48,0 l 48,0 0,512 -48,0 c -8.848,0 -16,-7.152 -16,-16 z"
           id="path2987"
           style="fill:#999999"
           inkscape:export-filename="/Users/poet/repo2.png"
           inkscape:export-xdpi="90"
           inkscape:export-ydpi="90" />
      </g>
      <g
         transform="matrix(0.35876623,0,0,0.35876623,463.53246,702.02453)"
         id="g3008"
         style="fill:#ffffff">
        <path
           style="fill:#ffffff"
           inkscape:connector-curvature="0"
           d="m 176,256 q 0,-13.25 -9.375,-22.625 Q 157.25,224 144,224 130.75,224 121.375,233.375 112,242.75 112,256 q 0,9.25 4.75,16.75 4.75,7.5 12.75,11.75 l -17.25,57.25 q -1.25,3.75 1.25,7 2.5,3.25 6.5,3.25 l 48,0 q 4,0 6.5,-3.25 2.5,-3.25 1.25,-7 L 158.5,284.5 q 8,-4.25 12.75,-11.75 Q 176,265.25 176,256 z m -96,-64 128,0 0,-48 Q 208,117.5 189.25,98.75 170.5,80 144,80 117.5,80 98.75,98.75 80,117.5 80,144 l 0,48 z m 208,24 0,144 q 0,10 -7,17 -7,7 -17,7 L 24,384 Q 14,384 7,377 0,370 0,360 L 0,216 q 0,-10 7,-17 7,-7 17,-7 l 8,0 0,-48 q 0,-46 33,-79 33,-33 79,-33 46,0 79,33 33,33 33,79 l 0,48 8,0 q 10,0 17,7 7,7 7,17 z"
           id="path3000" />
      </g>
    </g>
  </g>
</svg>
