<?xml version="1.0" encoding="UTF-8" standalone="no"?>
<!-- Generated by IcoMoon.io -->

<svg
   xmlns:dc="http://purl.org/dc/elements/1.1/"
   xmlns:cc="http://creativecommons.org/ns#"
   xmlns:rdf="http://www.w3.org/1999/02/22-rdf-syntax-ns#"
   xmlns:svg="http://www.w3.org/2000/svg"
   xmlns="http://www.w3.org/2000/svg"
   xmlns:sodipodi="http://sodipodi.sourceforge.net/DTD/sodipodi-0.dtd"
   xmlns:inkscape="http://www.inkscape.org/namespaces/inkscape"
   version="1.1"
   width="30"
   height="42"
   viewBox="0 0 30 42.000001"
   id="svg3009"
   inkscape:version="0.48.3.1 r9886"
   sodipodi:docname="long-arrow-up.svg"
   inkscape:export-filename="/tmp/arrow-down.png"
   inkscape:export-xdpi="33"
   inkscape:export-ydpi="33">
  <metadata
     id="metadata3017">
    <rdf:RDF>
      <cc:Work
         rdf:about="">
        <dc:format>image/svg+xml</dc:format>
        <dc:type
           rdf:resource="http://purl.org/dc/dcmitype/StillImage" />
        <dc:title></dc:title>
      </cc:Work>
    </rdf:RDF>
  </metadata>
  <defs
     id="defs3015" />
  <sodipodi:namedview
     pagecolor="#ffffff"
     bordercolor="#666666"
     borderopacity="1"
     objecttolerance="10"
     gridtolerance="10"
     guidetolerance="10"
     inkscape:pageopacity="0"
     inkscape:pageshadow="2"
     inkscape:window-width="1215"
     inkscape:window-height="776"
     id="namedview3013"
     showgrid="false"
     inkscape:zoom="10.216667"
     inkscape:cx="5.2687853"
     inkscape:cy="13.548125"
     inkscape:window-x="65"
     inkscape:window-y="24"
     inkscape:window-maximized="1"
     inkscape:current-layer="svg3009"
     fit-margin-top="0"
     fit-margin-left="0"
     fit-margin-right="0"
     fit-margin-bottom="0" />
  <path
     d="m 29.885105,27.255666 c -0.234761,-0.307603 -0.61242,-0.461404 -1.132978,-0.461404 l -7.657433,0 0,-26.01573 c 0,-0.226843 -0.117381,-0.41331 -0.352143,-0.5594 C 20.50779,0.073045 20.208142,0 19.843605,0 L 10.16077,0 C 9.7962333,0 9.4965846,0.07306 9.2618234,0.219132 9.0270617,0.365222 8.9096808,0.551689 8.9096808,0.778532 l 0,26.01573 -7.6574329,0 c -0.54680408,0 -0.92446325,0.153801 -1.13297746,0.461404 -0.20851508,0.307603 -0.14362808,0.591158 0.19466102,0.85067 L 13.984038,41.756369 c 0.261008,0.162421 0.560657,0.243632 0.898948,0.243632 0.364535,0 0.677306,-0.08122 0.938315,-0.243632 L 29.686068,28.106336 c 0.338289,-0.259512 0.403177,-0.543067 0.194662,-0.85067 z"
     id="path3011"
     inkscape:connector-curvature="0"
     style="fill:#b1b1b2;fill-opacity:1"
     sodipodi:nodetypes="cscsssscscssccscccc" />
</svg>
