<?xml version="1.0" encoding="UTF-8" standalone="no"?>
<!-- Generated by IcoMoon.io -->

<svg
   xmlns:dc="http://purl.org/dc/elements/1.1/"
   xmlns:cc="http://creativecommons.org/ns#"
   xmlns:rdf="http://www.w3.org/1999/02/22-rdf-syntax-ns#"
   xmlns:svg="http://www.w3.org/2000/svg"
   xmlns="http://www.w3.org/2000/svg"
   xmlns:sodipodi="http://sodipodi.sourceforge.net/DTD/sodipodi-0.dtd"
   xmlns:inkscape="http://www.inkscape.org/namespaces/inkscape"
   version="1.1"
   width="16"
   height="16"
   viewBox="0 0 16 16"
   id="svg3060"
   inkscape:version="0.48.4 r9939"
   sodipodi:docname="clock.svg"
   inkscape:export-filename="/home/lin/Downloads/clock@2x.png"
   inkscape:export-xdpi="194.52686"
   inkscape:export-ydpi="194.52686">
  <metadata
     id="metadata3068">
    <rdf:RDF>
      <cc:Work
         rdf:about="">
        <dc:format>image/svg+xml</dc:format>
        <dc:type
           rdf:resource="http://purl.org/dc/dcmitype/StillImage" />
        <dc:title></dc:title>
      </cc:Work>
    </rdf:RDF>
  </metadata>
  <defs
     id="defs3066" />
  <sodipodi:namedview
     pagecolor="#ffffff"
     bordercolor="#666666"
     borderopacity="1"
     objecttolerance="10"
     gridtolerance="10"
     guidetolerance="10"
     inkscape:pageopacity="0"
     inkscape:pageshadow="2"
     inkscape:window-width="1855"
     inkscape:window-height="1056"
     id="namedview3064"
     showgrid="false"
     inkscape:zoom="40.172504"
     inkscape:cx="9.4836957"
     inkscape:cy="6.5090134"
     inkscape:window-x="65"
     inkscape:window-y="24"
     inkscape:window-maximized="1"
     inkscape:current-layer="svg3060" />
  <path
     d="M 10.121764,11.430169 7.0746779,8.3830833 V 4.2987118 H 8.9253221 V 7.6169167 L 11.430169,10.121764 z M 8,0.59742355 C 3.9119271,0.59742355 0.59742355,3.9119271 0.59742355,8 c 0,4.088073 3.31450355,7.402577 7.40257645,7.402577 4.088073,0 7.402577,-3.314504 7.402577,-7.402577 C 15.402577,3.9119271 12.088073,0.59742355 8,0.59742355 z M 8,13.551933 C 4.9334827,13.551933 2.4480676,11.066517 2.4480676,8 2.4480676,4.9334827 4.9334827,2.4480676 8,2.4480676 c 3.066517,0 5.551933,2.4854151 5.551933,5.5519324 0,3.066517 -2.485416,5.551933 -5.551933,5.551933 z"
     id="path3062"
     style="fill:#999999;fill-opacity:1"
     inkscape:connector-curvature="0" />
</svg>
