<?xml version="1.0" encoding="UTF-8" standalone="no"?>
<!-- Generated by IcoMoon.io -->

<svg
   xmlns:dc="http://purl.org/dc/elements/1.1/"
   xmlns:cc="http://creativecommons.org/ns#"
   xmlns:rdf="http://www.w3.org/1999/02/22-rdf-syntax-ns#"
   xmlns:svg="http://www.w3.org/2000/svg"
   xmlns="http://www.w3.org/2000/svg"
   xmlns:sodipodi="http://sodipodi.sourceforge.net/DTD/sodipodi-0.dtd"
   xmlns:inkscape="http://www.inkscape.org/namespaces/inkscape"
   version="1.1"
   width="16"
   height="16"
   viewBox="0 0 16 16"
   id="svg4767"
   inkscape:version="0.48.4 r9939"
   sodipodi:docname="close.svg"
   inkscape:export-filename="/data/github/seafile-client/images/close.png"
   inkscape:export-xdpi="180"
   inkscape:export-ydpi="180">
  <metadata
     id="metadata4779">
    <rdf:RDF>
      <cc:Work
         rdf:about="">
        <dc:format>image/svg+xml</dc:format>
        <dc:type
           rdf:resource="http://purl.org/dc/dcmitype/StillImage" />
        <dc:title></dc:title>
      </cc:Work>
    </rdf:RDF>
  </metadata>
  <defs
     id="defs4777" />
  <sodipodi:namedview
     pagecolor="#ffffff"
     bordercolor="#666666"
     borderopacity="1"
     objecttolerance="10"
     gridtolerance="10"
     guidetolerance="10"
     inkscape:pageopacity="0"
     inkscape:pageshadow="2"
     inkscape:window-width="1295"
     inkscape:window-height="744"
     id="namedview4775"
     showgrid="false"
     inkscape:zoom="14.75"
     inkscape:cx="8"
     inkscape:cy="8"
     inkscape:window-x="65"
     inkscape:window-y="24"
     inkscape:window-maximized="1"
     inkscape:current-layer="svg4767" />
  <g
     id="g4769">
    <line
       stroke-width="1"
       x1=""
       y1=""
       x2=""
       y2=""
       stroke="#449FDB"
       opacity=""
       id="line4771" />
  </g>
  <path
     d="m 13.389468,11.292004 c 0,0 0,0 0,0 L 9.9957702,7.898305 13.389468,4.5046068 c 0,0 0,0 0,0 0.03636,-0.036356 0.06292,-0.079004 0.0797,-0.1244495 0.04614,-0.1244496 0.01958,-0.2698739 -0.0797,-0.369853 L 11.786305,2.407142 c -0.09998,-0.099979 -0.245403,-0.126547 -0.369852,-0.079703 -0.04544,0.01678 -0.08809,0.043347 -0.12445,0.079703 0,0 0,0 0,0 L 7.8983051,5.8008402 4.5046069,2.407142 c 0,0 0,0 0,0 C 4.468251,2.370786 4.4256026,2.3442182 4.3801574,2.3274385 4.2557078,2.2812944 4.1102835,2.3071631 4.0103044,2.407142 L 2.4071421,4.0103043 c -0.099979,0.099979 -0.126547,0.2454034 -0.079704,0.369853 0.01678,0.045445 0.043348,0.088093 0.079704,0.1244495 0,0 0,0 0,0 L 5.8008403,7.898305 2.4071421,11.292004 c 0,0 0,0 0,0 -0.036356,0.03636 -0.062924,0.079 -0.079704,0.124449 -0.046144,0.124449 -0.020275,0.269874 0.079704,0.369853 l 1.6031623,1.603163 c 0.099979,0.09998 0.2454034,0.126546 0.369853,0.0797 0.045445,-0.01678 0.088093,-0.04335 0.1244495,-0.0797 0,0 0,0 0,0 L 7.8983051,9.9957703 11.292003,13.389469 c 0,0 0,0 0,0 0.03636,0.03636 0.079,0.06292 0.12445,0.0797 0.124449,0.04614 0.269873,0.02027 0.369852,-0.0797 l 1.603163,-1.603163 c 0.09998,-0.09998 0.126546,-0.245404 0.0797,-0.369853 -0.01678,-0.04545 -0.04335,-0.08809 -0.0797,-0.124449 z"
     id="path4773"
     inkscape:connector-curvature="0"
     style="fill:#585859" />
</svg>
