<?xml version="1.0" encoding="UTF-8" standalone="no"?>
<!-- Generated by IcoMoon.io -->

<svg
   xmlns:dc="http://purl.org/dc/elements/1.1/"
   xmlns:cc="http://creativecommons.org/ns#"
   xmlns:rdf="http://www.w3.org/1999/02/22-rdf-syntax-ns#"
   xmlns:svg="http://www.w3.org/2000/svg"
   xmlns="http://www.w3.org/2000/svg"
   xmlns:sodipodi="http://sodipodi.sourceforge.net/DTD/sodipodi-0.dtd"
   xmlns:inkscape="http://www.inkscape.org/namespaces/inkscape"
   version="1.1"
   width="28"
   height="28"
   viewBox="0 0 28 27.999999"
   id="svg3033"
   inkscape:version="0.48.4 r9939"
   sodipodi:docname="hdd-o.svg"
   inkscape:export-filename="/home/lin/Downloads/disk@2x.png"
   inkscape:export-xdpi="102.85714"
   inkscape:export-ydpi="102.85714">
  <metadata
     id="metadata3041">
    <rdf:RDF>
      <cc:Work
         rdf:about="">
        <dc:format>image/svg+xml</dc:format>
        <dc:type
           rdf:resource="http://purl.org/dc/dcmitype/StillImage" />
        <dc:title></dc:title>
      </cc:Work>
    </rdf:RDF>
  </metadata>
  <defs
     id="defs3039" />
  <sodipodi:namedview
     pagecolor="#ffffff"
     bordercolor="#666666"
     borderopacity="1"
     objecttolerance="10"
     gridtolerance="10"
     guidetolerance="10"
     inkscape:pageopacity="0"
     inkscape:pageshadow="2"
     inkscape:window-width="1855"
     inkscape:window-height="1056"
     id="namedview3037"
     showgrid="false"
     fit-margin-top="0"
     fit-margin-left="0"
     fit-margin-right="0"
     fit-margin-bottom="0"
     inkscape:zoom="16.232143"
     inkscape:cx="3.3413679"
     inkscape:cy="11.153118"
     inkscape:window-x="65"
     inkscape:window-y="24"
     inkscape:window-maximized="1"
     inkscape:current-layer="svg3033" />
  <path
     d="m 18.863893,19.113731 q 0,0.579047 -0.411841,0.99089 -0.411841,0.411841 -0.990889,0.411841 -0.579047,0 -0.990889,-0.411841 -0.411842,-0.411843 -0.411842,-0.99089 0,-0.579046 0.411842,-0.990888 0.411842,-0.411842 0.990889,-0.411842 0.579048,0 0.990889,0.411842 0.411841,0.411842 0.411841,0.990888 z m 4.488737,0 q 0,0.579047 -0.411841,0.99089 -0.411842,0.411841 -0.990888,0.411841 -0.579048,0 -0.99089,-0.411841 -0.411841,-0.411843 -0.411841,-0.99089 0,-0.579046 0.411841,-0.990888 0.411842,-0.411842 0.99089,-0.411842 0.579046,0 0.990888,0.411842 0.411841,0.411842 0.411841,0.990888 z m 1.963823,2.805462 V 16.30827 q 0,-0.227803 -0.166083,-0.395008 -0.166084,-0.167206 -0.395009,-0.166083 H 3.43386 q -0.2278033,0 -0.3950089,0.166083 -0.1672054,0.166084 -0.1660832,0.395008 v 5.610923 q 0,0.227803 0.1660832,0.395008 0.1660833,0.167206 0.3950089,0.166083 h 21.321501 q 0.227804,0 0.395009,-0.166083 0.167205,-0.166083 0.166083,-0.395008 z M 3.7491938,13.50281 H 24.440028 L 21.68731,5.0516402 Q 21.616611,4.8238368 21.406763,4.6745864 21.196914,4.5253354 20.951156,4.5253354 H 7.2391871 q -0.2457584,0 -0.4556069,0.149251 -0.2098484,0.1492504 -0.2805461,0.3770538 z m 23.8116282,2.80546 v 5.610923 q 0,1.156972 -0.823684,1.981777 -0.823683,0.824805 -1.981777,0.823684 H 3.43386 q -1.156972,0 -1.9817776,-0.823684 Q 0.62727696,23.077286 0.62839914,21.919193 V 16.30827 q 0,-0.438773 0.28054604,-1.315199 L 4.3630287,4.3671073 Q 4.6615297,3.4379388 5.4672581,2.8588916 6.2729864,2.2798446 7.2380649,2.2798446 H 20.950034 q 0.963956,0 1.770807,0.579047 0.80685,0.5790472 1.104229,1.5082157 L 27.279154,14.993071 Q 27.5597,15.869497 27.5597,16.30827 z"
     id="path3035"
     style="fill:#999999;fill-opacity:1"
     inkscape:connector-curvature="0" />
</svg>
