<?xml version="1.0" encoding="UTF-8" standalone="no"?>
<!-- Generated by IcoMoon.io -->

<svg
   xmlns:dc="http://purl.org/dc/elements/1.1/"
   xmlns:cc="http://creativecommons.org/ns#"
   xmlns:rdf="http://www.w3.org/1999/02/22-rdf-syntax-ns#"
   xmlns:svg="http://www.w3.org/2000/svg"
   xmlns="http://www.w3.org/2000/svg"
   xmlns:sodipodi="http://sodipodi.sourceforge.net/DTD/sodipodi-0.dtd"
   xmlns:inkscape="http://www.inkscape.org/namespaces/inkscape"
   version="1.1"
   width="60"
   height="60"
   viewBox="0 0 60 60"
   id="svg3930"
   inkscape:version="0.48.3.1 r9886"
   sodipodi:docname="download-alt.svg"
   inkscape:export-filename="/tmp/download.png"
   inkscape:export-xdpi="90"
   inkscape:export-ydpi="90">
  <metadata
     id="metadata3938">
    <rdf:RDF>
      <cc:Work
         rdf:about="">
        <dc:format>image/svg+xml</dc:format>
        <dc:type
           rdf:resource="http://purl.org/dc/dcmitype/StillImage" />
        <dc:title></dc:title>
      </cc:Work>
    </rdf:RDF>
  </metadata>
  <defs
     id="defs3936" />
  <sodipodi:namedview
     pagecolor="#ffffff"
     bordercolor="#666666"
     borderopacity="1"
     objecttolerance="10"
     gridtolerance="10"
     guidetolerance="10"
     inkscape:pageopacity="0"
     inkscape:pageshadow="2"
     inkscape:window-width="1215"
     inkscape:window-height="776"
     id="namedview3934"
     showgrid="false"
     inkscape:zoom="7.375"
     inkscape:cx="-9"
     inkscape:cy="26.847458"
     inkscape:window-x="65"
     inkscape:window-y="24"
     inkscape:window-maximized="1"
     inkscape:current-layer="svg3930" />
  <path
     d="m 43.651813,48.750912 q 0,-0.845851 -0.578568,-1.465655 -0.578568,-0.619805 -1.372178,-0.617982 -0.793611,0.0018 -1.372179,0.617982 -0.578568,0.616158 -0.578568,1.465655 0,0.849497 0.578568,1.465656 0.578568,0.616158 1.372179,0.617981 0.79361,0.0018 1.372178,-0.617981 0.578568,-0.619805 0.578568,-1.465656 z m 7.802987,0 q 0,-0.845851 -0.578568,-1.465655 -0.578568,-0.619805 -1.372179,-0.617982 -0.793611,0.0018 -1.372178,0.617982 -0.578568,0.616158 -0.578568,1.465655 0,0.849497 0.578568,1.465656 0.578567,0.616158 1.372178,0.617981 0.793611,0.0018 1.372179,-0.617981 0.578568,-0.619805 0.578568,-1.465656 z m 3.899787,-7.291818 v 10.416362 q 0,1.30159 -0.853345,2.213067 Q 53.647897,55 52.42932,55 H 7.5672672 q -1.218577,0 -2.071922,-0.911477 -0.853345,-0.911477 -0.853345,-2.213067 V 41.459094 q 0,-1.301589 0.853345,-2.213066 0.853345,-0.911478 2.071922,-0.911478 H 21.73962 l 4.11483,4.427957 q 1.768131,1.822954 4.14555,1.822954 2.377419,0 4.14555,-1.822954 L 38.2911,38.33455 h 14.141633 q 1.218577,0 2.071922,0.911478 0.853345,0.911477 0.853345,2.213066 z m -9.903922,-18.52304 q 0.518833,1.334403 -0.426673,2.278693 l -13.65352,14.583636 q -0.547847,0.617981 -1.372179,0.617981 -0.824331,0 -1.372178,-0.617981 L 14.972595,25.214747 q -0.945507,-0.94429 -0.426673,-2.278693 0.518834,-1.268776 1.798851,-1.268776 h 7.80128 V 7.0836422 q 0,-0.8458509 0.578568,-1.4656554 0.578568,-0.6198045 1.372179,-0.6179816 h 7.80128 q 0.791904,0 1.372179,0.6179816 0.580274,0.6179816 0.578568,1.4656554 V 21.667278 h 7.80128 q 1.280017,0 1.798851,1.268776 z"
     id="path3932"
     inkscape:connector-curvature="0"
     style="fill:#585859;fill-opacity:1" />
</svg>
