<?xml version="1.0" encoding="UTF-8" standalone="no"?>
<!-- Generated by IcoMoon.io -->

<svg
   xmlns:dc="http://purl.org/dc/elements/1.1/"
   xmlns:cc="http://creativecommons.org/ns#"
   xmlns:rdf="http://www.w3.org/1999/02/22-rdf-syntax-ns#"
   xmlns:svg="http://www.w3.org/2000/svg"
   xmlns="http://www.w3.org/2000/svg"
   xmlns:sodipodi="http://sodipodi.sourceforge.net/DTD/sodipodi-0.dtd"
   xmlns:inkscape="http://www.inkscape.org/namespaces/inkscape"
   version="1.1"
   width="60"
   height="60"
   viewBox="0 0 60 60"
   id="svg4411"
   inkscape:version="0.48.3.1 r9886"
   sodipodi:docname="exclamation.svg"
   inkscape:export-filename="/tmp/exclamation.png"
   inkscape:export-xdpi="36"
   inkscape:export-ydpi="36">
  <metadata
     id="metadata4419">
    <rdf:RDF>
      <cc:Work
         rdf:about="">
        <dc:format>image/svg+xml</dc:format>
        <dc:type
           rdf:resource="http://purl.org/dc/dcmitype/StillImage" />
        <dc:title></dc:title>
      </cc:Work>
    </rdf:RDF>
  </metadata>
  <defs
     id="defs4417" />
  <sodipodi:namedview
     pagecolor="#ffffff"
     bordercolor="#666666"
     borderopacity="1"
     objecttolerance="10"
     gridtolerance="10"
     guidetolerance="10"
     inkscape:pageopacity="0"
     inkscape:pageshadow="2"
     inkscape:window-width="1215"
     inkscape:window-height="776"
     id="namedview4415"
     showgrid="false"
     inkscape:zoom="3.9333333"
     inkscape:cx="-34.5"
     inkscape:cy="-0.50847458"
     inkscape:window-x="65"
     inkscape:window-y="24"
     inkscape:window-maximized="1"
     inkscape:current-layer="svg4411" />
  <path
     d="m 36.428,43.9285 v 7.5 q 0,0.871 -0.636,1.507 -0.636,0.636 -1.507,0.636 h -8.571 q -0.871,0 -1.507,-0.636 -0.636,-0.636 -0.636,-1.507 v -7.5 q 0,-0.871 0.636,-1.507 0.636,-0.636 1.507,-0.636 h 8.571 q 0.871,0 1.507,0.636 0.636,0.636 0.636,1.507 z m 1.004,-35.357 -0.938,25.714 q -0.033,0.871 -0.686,1.507 -0.653,0.636 -1.523,0.636 h -8.571 q -0.871,0 -1.523,-0.636 -0.652,-0.636 -0.686,-1.507 L 22.567,8.5715 q -0.033,-0.871 0.586,-1.507 0.619,-0.636 1.49,-0.636 h 10.714 q 0.871,0 1.49,0.636 0.619,0.636 0.586,1.507 z"
     id="path4413"
     style="fill:#f17f49;fill-opacity:1"
     inkscape:connector-curvature="0" />
</svg>
