<?xml version="1.0" encoding="UTF-8" standalone="no"?>
<!-- Generated by IcoMoon.io -->

<svg
   xmlns:dc="http://purl.org/dc/elements/1.1/"
   xmlns:cc="http://creativecommons.org/ns#"
   xmlns:rdf="http://www.w3.org/1999/02/22-rdf-syntax-ns#"
   xmlns:svg="http://www.w3.org/2000/svg"
   xmlns="http://www.w3.org/2000/svg"
   xmlns:sodipodi="http://sodipodi.sourceforge.net/DTD/sodipodi-0.dtd"
   xmlns:inkscape="http://www.inkscape.org/namespaces/inkscape"
   version="1.1"
   width="60"
   height="60"
   viewBox="0 0 60 60"
   id="svg4411"
   inkscape:version="0.48.3.1 r9886"
   sodipodi:docname="exclamation.svg"
   inkscape:export-filename="/tmp/exclamation.png"
   inkscape:export-xdpi="36"
   inkscape:export-ydpi="36">
  <metadata
     id="metadata4419">
    <rdf:RDF>
      <cc:Work
         rdf:about="">
        <dc:format>image/svg+xml</dc:format>
        <dc:type
           rdf:resource="http://purl.org/dc/dcmitype/StillImage" />
        <dc:title></dc:title>
      </cc:Work>
    </rdf:RDF>
  </metadata>
  <defs
     id="defs4417" />
  <sodipodi:namedview
     pagecolor="#ffffff"
     bordercolor="#666666"
     borderopacity="1"
     objecttolerance="10"
     gridtolerance="10"
     guidetolerance="10"
     inkscape:pageopacity="0"
     inkscape:pageshadow="2"
     inkscape:window-width="1215"
     inkscape:window-height="776"
     id="namedview4415"
     showgrid="false"
     inkscape:zoom="10.216667"
     inkscape:cx="30"
     inkscape:cy="30"
     inkscape:window-x="65"
     inkscape:window-y="24"
     inkscape:window-maximized="1"
     inkscape:current-layer="svg4411" />
  <path
     d="m 35.619886,42.17744 v 6.557117 q 0,0.7615 -0.556043,1.317543 -0.556044,0.556044 -1.317544,0.556044 h -7.493473 q -0.7615,0 -1.317544,-0.556044 Q 24.37924,49.496057 24.37924,48.734557 V 42.17744 q 0,-0.7615 0.556042,-1.317543 0.556044,-0.556044 1.317544,-0.556044 h 7.493473 q 0.7615,0 1.317544,0.556044 0.556043,0.556043 0.556043,1.317543 z m 0.87778,-30.911997 -0.820077,22.481293 q -0.02885,0.7615 -0.599758,1.317544 -0.570906,0.556043 -1.331532,0.556043 h -7.493473 q -0.7615,0 -1.331532,-0.556043 -0.570031,-0.556044 -0.599757,-1.317544 L 23.50146,11.265443 Q 23.47261,10.503944 24.013789,9.9479 24.554971,9.391856 25.316469,9.391856 h 9.367061 q 0.7615,0 1.30268,0.556044 0.541181,0.556044 0.51233,1.317543 z"
     id="path4413"
     style="fill:#f17f49;fill-opacity:1"
     inkscape:connector-curvature="0" />
</svg>
