<?xml version="1.0" encoding="UTF-8" standalone="no"?>
<!-- Generated by IcoMoon.io -->

<svg
   xmlns:dc="http://purl.org/dc/elements/1.1/"
   xmlns:cc="http://creativecommons.org/ns#"
   xmlns:rdf="http://www.w3.org/1999/02/22-rdf-syntax-ns#"
   xmlns:svg="http://www.w3.org/2000/svg"
   xmlns="http://www.w3.org/2000/svg"
   xmlns:sodipodi="http://sodipodi.sourceforge.net/DTD/sodipodi-0.dtd"
   xmlns:inkscape="http://www.inkscape.org/namespaces/inkscape"
   version="1.1"
   width="60"
   height="60"
   viewBox="0 0 60 60"
   id="svg7784"
   inkscape:version="0.48.3.1 r9886"
   sodipodi:docname="info-sign.svg"
   inkscape:export-filename="/tmp/info.png"
   inkscape:export-xdpi="90"
   inkscape:export-ydpi="90">
  <metadata
     id="metadata7792">
    <rdf:RDF>
      <cc:Work
         rdf:about="">
        <dc:format>image/svg+xml</dc:format>
        <dc:type
           rdf:resource="http://purl.org/dc/dcmitype/StillImage" />
        <dc:title></dc:title>
      </cc:Work>
    </rdf:RDF>
  </metadata>
  <defs
     id="defs7790" />
  <sodipodi:namedview
     pagecolor="#ffffff"
     bordercolor="#666666"
     borderopacity="1"
     objecttolerance="10"
     gridtolerance="10"
     guidetolerance="10"
     inkscape:pageopacity="0"
     inkscape:pageshadow="2"
     inkscape:window-width="1215"
     inkscape:window-height="776"
     id="namedview7788"
     showgrid="false"
     inkscape:zoom="7.375"
     inkscape:cx="-2.6355932"
     inkscape:cy="26.847458"
     inkscape:window-x="65"
     inkscape:window-y="24"
     inkscape:window-maximized="1"
     inkscape:current-layer="svg7784" />
  <path
     d="M 39.165998,47.186998 V 41.458 q 0,-0.501314 -0.322846,-0.824159 -0.322845,-0.322845 -0.824156,-0.322845 h -3.437 V 21.976994 q 0,-0.501312 -0.322844,-0.824158 -0.322846,-0.322845 -0.824159,-0.322845 H 21.976994 q -0.501312,0 -0.824158,0.322845 -0.322845,0.322846 -0.322845,0.824158 v 5.729 q 0,0.501313 0.322845,0.824158 0.322846,0.322846 0.824158,0.322846 h 3.437 v 11.457998 h -3.437 q -0.501312,0 -0.824158,0.322845 -0.322845,0.322845 -0.322845,0.824159 v 5.728998 q 0,0.501314 0.322845,0.824159 0.322846,0.322845 0.824158,0.322845 h 16.042002 q 0.501311,0 0.824156,-0.322845 0.322846,-0.322845 0.322846,-0.824159 z m -4.584002,-32.084 V 9.3739977 q 0,-0.5013124 -0.322844,-0.824158 -0.322846,-0.3228456 -0.824159,-0.3228456 h -6.876002 q -0.501313,0 -0.824159,0.3228456 -0.322844,0.3228456 -0.322844,0.824158 v 5.7290003 q 0,0.501312 0.322844,0.824156 Q 26.057678,16.25 26.558991,16.25 h 6.876002 q 0.501313,0 0.824159,-0.322846 0.322844,-0.322844 0.322844,-0.824156 z M 57.5,30 q 0,7.483594 -3.687656,13.804142 Q 50.12469,50.12469 43.804142,53.812344 37.483594,57.5 30,57.5 22.516406,57.5 16.195858,53.812344 9.87531,50.12469 6.1876549,43.804142 2.5,37.483594 2.5,30 2.5,22.516406 6.1876549,16.195858 9.87531,9.8753101 16.195858,6.1876554 22.516406,2.5 30,2.5 37.483594,2.5 43.804142,6.1876554 50.12469,9.8753101 53.812344,16.195858 57.5,22.516406 57.5,30 z"
     id="path7786"
     inkscape:connector-curvature="0"
     style="fill:#585859;fill-opacity:1" />
</svg>
