<?xml version="1.0" encoding="UTF-8" standalone="no"?>
<!-- Generated by IcoMoon.io -->

<svg
   xmlns:dc="http://purl.org/dc/elements/1.1/"
   xmlns:cc="http://creativecommons.org/ns#"
   xmlns:rdf="http://www.w3.org/1999/02/22-rdf-syntax-ns#"
   xmlns:svg="http://www.w3.org/2000/svg"
   xmlns="http://www.w3.org/2000/svg"
   xmlns:sodipodi="http://sodipodi.sourceforge.net/DTD/sodipodi-0.dtd"
   xmlns:inkscape="http://www.inkscape.org/namespaces/inkscape"
   version="1.1"
   width="32"
   height="32"
   viewBox="0 0 32 32"
   id="svg9579"
   inkscape:version="0.48.3.1 r9886"
   sodipodi:docname="link.svg"
   inkscape:export-filename="/tmp/link-red.png"
   inkscape:export-xdpi="168.75"
   inkscape:export-ydpi="168.75">
  <metadata
     id="metadata9587">
    <rdf:RDF>
      <cc:Work
         rdf:about="">
        <dc:format>image/svg+xml</dc:format>
        <dc:type
           rdf:resource="http://purl.org/dc/dcmitype/StillImage" />
        <dc:title></dc:title>
      </cc:Work>
    </rdf:RDF>
  </metadata>
  <defs
     id="defs9585" />
  <sodipodi:namedview
     pagecolor="#ffffff"
     bordercolor="#666666"
     borderopacity="1"
     objecttolerance="10"
     gridtolerance="10"
     guidetolerance="10"
     inkscape:pageopacity="0"
     inkscape:pageshadow="2"
     inkscape:window-width="1215"
     inkscape:window-height="776"
     id="namedview9583"
     showgrid="false"
     inkscape:zoom="7.375"
     inkscape:cx="-8"
     inkscape:cy="16"
     inkscape:window-x="65"
     inkscape:window-y="24"
     inkscape:window-maximized="1"
     inkscape:current-layer="svg9579" />
  <path
     d="M 27.208113,4.8946702 27.105734,4.7922939 c -2.390392,-2.390392 -6.301795,-2.390392 -8.692187,0 l -5.53804,5.5388521 c -2.390392,2.390392 -2.390392,6.301794 0,8.691373 l 0.102379,0.102378 c 0.199062,0.199065 0.410314,0.378627 0.628065,0.545193 l 2.027204,-2.027204 c -0.236441,-0.139751 -0.459879,-0.306313 -0.663005,-0.50944 l -0.102378,-0.102378 c -1.297573,-1.297574 -1.297573,-3.409275 0,-4.706848 l 5.538039,-5.5380376 c 1.297571,-1.297572 3.409274,-1.297572 4.706845,0 l 0.102378,0.1023752 c 1.297573,1.2975718 1.297573,3.4100864 0,4.7068454 l -2.505768,2.505768 c 0.434692,1.074133 0.641068,2.218952 0.623194,3.361335 l 3.874838,-3.874839 c 2.390392,-2.390391 2.390392,-6.301794 0,-8.6913739 z M 19.02293,12.87429 c -0.199066,-0.199066 -0.410317,-0.378629 -0.628069,-0.54438 l -2.0272,2.027201 c 0.236437,0.139751 0.459878,0.306316 0.663005,0.509443 l 0.102378,0.102378 c 1.29757,1.297571 1.29757,3.409274 0,4.706845 l -5.538853,5.538854 c -1.297571,1.29757 -3.409274,1.29757 -4.7068458,0 L 6.7849689,25.112252 c -1.2975718,-1.298383 -1.2975718,-3.409274 0,-4.706846 L 9.290734,17.899637 C 8.8560436,16.825503 8.6496672,15.680684 8.6675423,14.538301 L 4.792702,18.41314 c -2.3903919,2.390392 -2.3903919,6.301795 0,8.692187 l 0.1023752,0.102378 c 2.3903922,2.390393 6.3017958,2.390393 8.6921878,0 l 5.53804,-5.538039 c 2.390392,-2.390393 2.390392,-6.301795 0,-8.692188 L 19.022926,12.8751 z"
     id="path9581"
     style="fill:#ff2a2a;fill-opacity:1"
     inkscape:connector-curvature="0" />
</svg>
