<?xml version="1.0" encoding="UTF-8" standalone="no"?>
<!-- Generated by IcoMoon.io -->

<svg
   xmlns:dc="http://purl.org/dc/elements/1.1/"
   xmlns:cc="http://creativecommons.org/ns#"
   xmlns:rdf="http://www.w3.org/1999/02/22-rdf-syntax-ns#"
   xmlns:svg="http://www.w3.org/2000/svg"
   xmlns="http://www.w3.org/2000/svg"
   xmlns:sodipodi="http://sodipodi.sourceforge.net/DTD/sodipodi-0.dtd"
   xmlns:inkscape="http://www.inkscape.org/namespaces/inkscape"
   version="1.1"
   width="60"
   height="60"
   viewBox="0 0 60 60"
   id="svg3065"
   inkscape:version="0.48.3.1 r9886"
   sodipodi:docname="ok.svg"
   inkscape:export-filename="/tmp/ok.png"
   inkscape:export-xdpi="36"
   inkscape:export-ydpi="36">
  <metadata
     id="metadata3073">
    <rdf:RDF>
      <cc:Work
         rdf:about="">
        <dc:format>image/svg+xml</dc:format>
        <dc:type
           rdf:resource="http://purl.org/dc/dcmitype/StillImage" />
        <dc:title></dc:title>
      </cc:Work>
    </rdf:RDF>
  </metadata>
  <defs
     id="defs3071" />
  <sodipodi:namedview
     pagecolor="#ffffff"
     bordercolor="#666666"
     borderopacity="1"
     objecttolerance="10"
     gridtolerance="10"
     guidetolerance="10"
     inkscape:pageopacity="0"
     inkscape:pageshadow="2"
     inkscape:window-width="1215"
     inkscape:window-height="776"
     id="namedview3069"
     showgrid="false"
     inkscape:zoom="9.95"
     inkscape:cx="30"
     inkscape:cy="30"
     inkscape:window-x="65"
     inkscape:window-y="24"
     inkscape:window-maximized="1"
     inkscape:current-layer="layer1" />
  <path
     sodipodi:type="arc"
     style="fill:#54c73f;fill-opacity:1"
     id="path3845"
     sodipodi:cx="15.979899"
     sodipodi:cy="4.924623"
     sodipodi:rx="7.3366833"
     sodipodi:ry="6.3316584"
     d="m 23.316583,4.924623 a 7.3366833,6.3316584 0 1 1 -14.6733669,0 7.3366833,6.3316584 0 1 1 14.6733669,0 z"
     transform="matrix(4.0890412,0,0,4.7380953,-35.342467,6.6666668)" />
  <g
     inkscape:groupmode="layer"
     id="layer1"
     inkscape:label="ok">
    <path
       d="m 47.949308,21.616068 q 0,0.926208 -0.648828,1.575037 L 27.382549,43.109034 q -0.648828,0.648829 -1.575034,0.648829 -0.926206,0 -1.575034,-0.648829 L 12.698828,31.575379 Q 12.05,30.926551 12.05,30.000344 q 0,-0.926206 0.648828,-1.575033 l 3.150068,-3.15007 q 0.648828,-0.648829 1.575035,-0.648829 0.926206,0 1.575035,0.648829 l 6.80924,6.832067 15.192825,-15.216342 q 0.648828,-0.648828 1.575034,-0.648828 0.926209,0 1.575037,0.648828 l 3.15007,3.150069 Q 47.95,20.689862 47.95,21.616068 z"
       id="path3067"
       style="fill:#ffffff;fill-opacity:1"
       inkscape:connector-curvature="0" />
  </g>
</svg>
