<?xml version="1.0" encoding="UTF-8" standalone="no"?>
<!-- Generated by IcoMoon.io -->

<svg
   xmlns:dc="http://purl.org/dc/elements/1.1/"
   xmlns:cc="http://creativecommons.org/ns#"
   xmlns:rdf="http://www.w3.org/1999/02/22-rdf-syntax-ns#"
   xmlns:svg="http://www.w3.org/2000/svg"
   xmlns="http://www.w3.org/2000/svg"
   xmlns:sodipodi="http://sodipodi.sourceforge.net/DTD/sodipodi-0.dtd"
   xmlns:inkscape="http://www.inkscape.org/namespaces/inkscape"
   version="1.1"
   width="60"
   height="60"
   viewBox="0 0 60 60"
   id="svg6322"
   inkscape:version="0.48.3.1 r9886"
   sodipodi:docname="pause.svg"
   inkscape:export-filename="/tmp/pause.png"
   inkscape:export-xdpi="36"
   inkscape:export-ydpi="36">
  <metadata
     id="metadata6330">
    <rdf:RDF>
      <cc:Work
         rdf:about="">
        <dc:format>image/svg+xml</dc:format>
        <dc:type
           rdf:resource="http://purl.org/dc/dcmitype/StillImage" />
        <dc:title></dc:title>
      </cc:Work>
    </rdf:RDF>
  </metadata>
  <defs
     id="defs6328" />
  <sodipodi:namedview
     pagecolor="#ffffff"
     bordercolor="#666666"
     borderopacity="1"
     objecttolerance="10"
     gridtolerance="10"
     guidetolerance="10"
     inkscape:pageopacity="0"
     inkscape:pageshadow="2"
     inkscape:window-width="1215"
     inkscape:window-height="776"
     id="namedview6326"
     showgrid="false"
     inkscape:zoom="3.9333333"
     inkscape:cx="-64.245763"
     inkscape:cy="30"
     inkscape:window-x="65"
     inkscape:window-y="24"
     inkscape:window-maximized="1"
     inkscape:current-layer="svg6322" />
  <path
     d="M 55,7.0834549 V 52.916545 q 0,0.846799 -0.618328,1.465127 Q 53.763344,55 52.916545,55 H 36.249878 Q 35.40308,55 34.784752,54.381672 34.166424,53.763344 34.166424,52.916545 V 7.0834549 q 0,-0.8467985 0.618328,-1.4651267 Q 35.40308,5 36.249878,5 H 52.916545 Q 53.763344,5 54.381672,5.6183282 55,6.2366564 55,7.0834549 z m -29.166424,0 V 52.916545 q 0,0.846799 -0.618328,1.465127 Q 24.59692,55 23.750122,55 H 7.083455 Q 6.2366565,55 5.6183282,54.381672 5.0000001,53.763344 5.0000001,52.916545 V 7.0834549 q 0,-0.8467985 0.6183281,-1.4651267 Q 6.2366565,5 7.083455,5 h 16.666667 q 0.846798,0 1.465126,0.6183282 0.618328,0.6183282 0.618328,1.4651267 z"
     id="path6324"
     inkscape:connector-curvature="0"
     style="fill:#f17f49;fill-opacity:1" />
</svg>
