<?xml version="1.0" encoding="UTF-8" standalone="no"?>
<!-- Generated by IcoMoon.io -->

<svg
   xmlns:dc="http://purl.org/dc/elements/1.1/"
   xmlns:cc="http://creativecommons.org/ns#"
   xmlns:rdf="http://www.w3.org/1999/02/22-rdf-syntax-ns#"
   xmlns:svg="http://www.w3.org/2000/svg"
   xmlns="http://www.w3.org/2000/svg"
   xmlns:sodipodi="http://sodipodi.sourceforge.net/DTD/sodipodi-0.dtd"
   xmlns:inkscape="http://www.inkscape.org/namespaces/inkscape"
   version="1.1"
   width="16"
   height="16"
   viewBox="0 0 16 16"
   id="svg4680"
   inkscape:version="0.48.4 r9939"
   sodipodi:docname="plus.svg"
   inkscape:export-filename="/data/github/seafile-client/images/plus.png"
   inkscape:export-xdpi="180"
   inkscape:export-ydpi="180">
  <metadata
     id="metadata4692">
    <rdf:RDF>
      <cc:Work
         rdf:about="">
        <dc:format>image/svg+xml</dc:format>
        <dc:type
           rdf:resource="http://purl.org/dc/dcmitype/StillImage" />
        <dc:title></dc:title>
      </cc:Work>
    </rdf:RDF>
  </metadata>
  <defs
     id="defs4690" />
  <sodipodi:namedview
     pagecolor="#ffffff"
     bordercolor="#666666"
     borderopacity="1"
     objecttolerance="10"
     gridtolerance="10"
     guidetolerance="10"
     inkscape:pageopacity="0"
     inkscape:pageshadow="2"
     inkscape:window-width="1295"
     inkscape:window-height="744"
     id="namedview4688"
     showgrid="false"
     inkscape:zoom="14.75"
     inkscape:cx="-1.5677966"
     inkscape:cy="8"
     inkscape:window-x="65"
     inkscape:window-y="24"
     inkscape:window-maximized="1"
     inkscape:current-layer="svg4680" />
  <g
     id="g4682">
    <line
       x1="0"
       y1="0"
       x2="0"
       y2="0"
       opacity=""
       id="line4684"
       style="stroke:#449fdb;stroke-width:1" />
  </g>
  <path
     d="M 1.715,8.857 V 7.143 q 0,-0.357 0.25,-0.607 0.25,-0.25 0.607,-0.25 H 6.286 V 2.572 q 0,-0.357 0.25,-0.607 0.25,-0.25 0.607,-0.25 h 1.714 q 0.357,0 0.607,0.25 0.25,0.25 0.25,0.607 v 3.714 h 3.714 q 0.357,0 0.607,0.25 0.25,0.25 0.25,0.607 v 1.714 q 0,0.357 -0.25,0.607 -0.25,0.25 -0.607,0.25 H 9.714 v 3.714 q 0,0.357 -0.25,0.607 -0.25,0.25 -0.607,0.25 H 7.143 q -0.357,0 -0.607,-0.25 -0.25,-0.25 -0.25,-0.607 V 9.714 H 2.572 q -0.357,0 -0.607,-0.25 -0.25,-0.25 -0.25,-0.607 z"
     id="path4686"
     inkscape:connector-curvature="0"
     style="fill:#585859" />
</svg>
