<?xml version="1.0" encoding="UTF-8" standalone="no"?>
<!-- Generated by IcoMoon.io -->

<svg
   xmlns:dc="http://purl.org/dc/elements/1.1/"
   xmlns:cc="http://creativecommons.org/ns#"
   xmlns:rdf="http://www.w3.org/1999/02/22-rdf-syntax-ns#"
   xmlns:svg="http://www.w3.org/2000/svg"
   xmlns="http://www.w3.org/2000/svg"
   xmlns:sodipodi="http://sodipodi.sourceforge.net/DTD/sodipodi-0.dtd"
   xmlns:inkscape="http://www.inkscape.org/namespaces/inkscape"
   version="1.1"
   width="60"
   height="60"
   viewBox="0 0 60 60"
   id="svg5006"
   inkscape:version="0.48.3.1 r9886"
   sodipodi:docname="question.svg"
   inkscape:export-filename="/tmp/question.png"
   inkscape:export-xdpi="36"
   inkscape:export-ydpi="36">
  <metadata
     id="metadata5014">
    <rdf:RDF>
      <cc:Work
         rdf:about="">
        <dc:format>image/svg+xml</dc:format>
        <dc:type
           rdf:resource="http://purl.org/dc/dcmitype/StillImage" />
        <dc:title></dc:title>
      </cc:Work>
    </rdf:RDF>
  </metadata>
  <defs
     id="defs5012" />
  <sodipodi:namedview
     pagecolor="#ffffff"
     bordercolor="#666666"
     borderopacity="1"
     objecttolerance="10"
     gridtolerance="10"
     guidetolerance="10"
     inkscape:pageopacity="0"
     inkscape:pageshadow="2"
     inkscape:window-width="1215"
     inkscape:window-height="776"
     id="namedview5010"
     showgrid="false"
     inkscape:zoom="3.9333333"
     inkscape:cx="-28"
     inkscape:cy="30"
     inkscape:window-x="65"
     inkscape:window-y="24"
     inkscape:window-maximized="1"
     inkscape:current-layer="svg5006" />
  <path
     d="m 34.890523,42.0545 v 8.036 q 0,0.536 -0.402,0.938 -0.402,0.402 -0.938,0.402 h -8.036 q -0.536,0 -0.938,-0.402 -0.402,-0.402 -0.402,-0.938 v -8.036 q 0,-0.536 0.402,-0.938 0.402,-0.402 0.938,-0.402 h 8.036 q 0.536,0 0.938,0.402 0.402,0.402 0.402,0.938 z m 10.581,-20.09 q 0,1.808 -0.519,3.382 -0.519,1.574 -1.172,2.561 -0.653,0.987 -1.842,1.992 -1.189,1.005 -1.925,1.456 -0.736,0.451 -2.042,1.189 -1.373,0.77 -2.294,2.176 -0.921,1.406 -0.921,2.243 0,0.569 -0.402,1.088 -0.402,0.519 -0.938,0.519 h -8.036 q -0.502,0 -0.854,-0.619 -0.352,-0.619 -0.352,-1.256 v -1.507 q 0,-2.779 2.176,-5.24 2.176,-2.461 4.788,-3.633 1.975,-0.904 2.813,-1.875 0.838,-0.971 0.837,-2.545 0,-1.406 -1.557,-2.478 -1.557,-1.072 -3.599,-1.071 -2.176,0 -3.616,0.971 -1.172,0.837 -3.583,3.85 -0.435,0.536 -1.038,0.536 -0.402,0 -0.837,-0.268 l -5.491,-4.185 q -0.435,-0.335 -0.519,-0.837 -0.084,-0.502 0.184,-0.938 5.357,-8.906 15.536,-8.906 2.679,0 5.391,1.038 2.712,1.038 4.888,2.779 2.176,1.741 3.549,4.269 1.373,2.528 1.373,5.307 z"
     id="path5008"
     inkscape:connector-curvature="0"
     style="fill:#f17f49;fill-opacity:1" />
</svg>
