<?xml version="1.0" encoding="utf-8"?> <!-- Generator: IcoMoon.io --> <!DOCTYPE svg PUBLIC "-//W3C//DTD SVG 1.1//EN" "http://www.w3.org/Graphics/SVG/1.1/DTD/svg11.dtd"> <svg width="384" height="448" viewBox="0 0 384 448" xmlns="http://www.w3.org/2000/svg" xmlns:xlink="http://www.w3.org/1999/xlink" fill="#000000"><path d="M 377.75,264.00q0.00,1.25 -0.25,1.75q-16.00,67.00 -67.00,108.625t-119.50,41.625q-36.50,0.00 -70.625-13.75t-60.875-39.25l-32.25,32.25q-4.75,4.75 -11.25,4.75t-11.25-4.75t-4.75-11.25l0.00-112.00 q0.00-6.50 4.75-11.25t 11.25-4.75l 112.00,0.00 q 6.50,0.00 11.25,4.75t 4.75,11.25t-4.75,11.25l-34.25,34.25q 17.75,16.50 40.25,25.50t 46.75,9.00q 33.50,0.00 62.50-16.25t 46.50-44.75q 2.75-4.25 13.25-29.25 q 2.00-5.75 7.50-5.75l 48.00,0.00 q 3.25,0.00 5.625,2.375t 2.375,5.625zM 384.00,64.00l0.00,112.00 q0.00,6.50 -4.75,11.25t-11.25,4.75l-112.00,0.00 q-6.50,0.00 -11.25-4.75t-4.75-11.25t 4.75-11.25l 34.50-34.50q-37.00-34.25 -87.25-34.25q-33.50,0.00 -62.50,16.25t-46.50,44.75q-2.75,4.25 -13.25,29.25q-2.00,5.75 -7.50,5.75l-49.75,0.00 q-3.25,0.00 -5.625-2.375t-2.375-5.625l0.00-1.75 q 16.25-67.00 67.50-108.625t 120.00-41.625 q 36.50,0.00 71.00,13.875t 61.25,39.125l 32.50-32.25q 4.75-4.75 11.25-4.75t 11.25,4.75t 4.75,11.25z" ></path></svg>