<?xml version="1.0" encoding="UTF-8" standalone="no"?>
<!-- Generated by IcoMoon.io -->

<svg
   xmlns:dc="http://purl.org/dc/elements/1.1/"
   xmlns:cc="http://creativecommons.org/ns#"
   xmlns:rdf="http://www.w3.org/1999/02/22-rdf-syntax-ns#"
   xmlns:svg="http://www.w3.org/2000/svg"
   xmlns="http://www.w3.org/2000/svg"
   xmlns:sodipodi="http://sodipodi.sourceforge.net/DTD/sodipodi-0.dtd"
   xmlns:inkscape="http://www.inkscape.org/namespaces/inkscape"
   version="1.1"
   width="60"
   height="60"
   viewBox="0 0 60 60"
   id="svg5029"
   inkscape:version="0.48.3.1 r9886"
   sodipodi:docname="repeat.svg"
   inkscape:export-filename="/tmp/refresh.png"
   inkscape:export-xdpi="90"
   inkscape:export-ydpi="90">
  <metadata
     id="metadata5037">
    <rdf:RDF>
      <cc:Work
         rdf:about="">
        <dc:format>image/svg+xml</dc:format>
        <dc:type
           rdf:resource="http://purl.org/dc/dcmitype/StillImage" />
        <dc:title></dc:title>
      </cc:Work>
    </rdf:RDF>
  </metadata>
  <defs
     id="defs5035" />
  <sodipodi:namedview
     pagecolor="#ffffff"
     bordercolor="#666666"
     borderopacity="1"
     objecttolerance="10"
     gridtolerance="10"
     guidetolerance="10"
     inkscape:pageopacity="0"
     inkscape:pageshadow="2"
     inkscape:window-width="1215"
     inkscape:window-height="776"
     id="namedview5033"
     showgrid="false"
     inkscape:zoom="10.216667"
     inkscape:cx="30"
     inkscape:cy="30"
     inkscape:window-x="65"
     inkscape:window-y="24"
     inkscape:window-maximized="1"
     inkscape:current-layer="svg5029" />
  <path
     d="M 32.932102,1.6095254 43.244291,11.921715 q 0.598107,0.598107 0.599411,1.473337 0.0013,0.875232 -0.599357,1.473317 L 32.932531,25.180182 q -0.966732,0.966732 -2.278944,0.438218 -1.289008,-0.505312 -1.265833,-1.910321 l -1.15e-4,-6.352193 q -6.559717,0.253814 -11.185854,4.879951 -2.39363,2.39363 -3.637458,5.501386 -1.243829,3.107756 -1.243771,6.283852 5.8e-5,3.176097 1.244,6.283899 1.243942,3.107801 3.637659,5.501518 2.393716,2.393717 5.501518,3.637659 3.107802,1.243942 6.283899,1.243999 3.176096,5.8e-5 6.283852,-1.24377 3.107756,-1.243828 5.501386,-3.637458 2.739075,-2.739075 3.981605,-6.376612 1.242531,-3.637534 0.735883,-7.503255 -0.06961,-0.391857 0.253918,-0.80562 0.322244,-0.322245 0.782416,-0.367351 l 6.328991,0.02332 q 0.391856,-0.02319 0.690909,0.252657 0.299056,0.275848 0.345464,0.69091 0.52988,5.546577 -1.368721,10.78375 -1.898602,5.237173 -5.857049,9.19562 -3.591089,3.591089 -8.262392,5.454898 -4.671301,1.863809 -9.414822,1.863722 -4.74352,-8.6e-5 -9.41489,-1.864065 -4.671371,-1.863982 -8.262591,-5.455202 -3.5912194,-3.59122 -5.4551987,-8.262591 -1.8639792,-4.67137 -1.8640651,-9.41489 -8.7e-5,-4.743521 1.8637217,-9.414823 1.8638093,-4.671302 5.4548981,-8.262391 3.383564,-3.383564 7.825424,-5.270579 4.441859,-1.8870151 9.230492,-2.0248514 l 0.0218,-5.9616237 q -0.04643,-1.3818097 1.288965,-1.9334773 1.288991,-0.50526461 2.255759,0.4615031 z"
     id="path5031"
     inkscape:connector-curvature="0"
     style="fill:#585859;fill-opacity:1" />
</svg>
