<?xml version="1.0" encoding="UTF-8" standalone="no"?>
<!-- Generated by IcoMoon.io -->

<svg
   xmlns:dc="http://purl.org/dc/elements/1.1/"
   xmlns:cc="http://creativecommons.org/ns#"
   xmlns:rdf="http://www.w3.org/1999/02/22-rdf-syntax-ns#"
   xmlns:svg="http://www.w3.org/2000/svg"
   xmlns="http://www.w3.org/2000/svg"
   xmlns:sodipodi="http://sodipodi.sourceforge.net/DTD/sodipodi-0.dtd"
   xmlns:inkscape="http://www.inkscape.org/namespaces/inkscape"
   version="1.1"
   width="60"
   height="60"
   viewBox="0 0 60 60"
   id="svg5029"
   inkscape:version="0.48.3.1 r9886"
   sodipodi:docname="refresh.svg"
   inkscape:export-filename="/tmp/refresh.png"
   inkscape:export-xdpi="36"
   inkscape:export-ydpi="36">
  <metadata
     id="metadata5037">
    <rdf:RDF>
      <cc:Work
         rdf:about="">
        <dc:format>image/svg+xml</dc:format>
        <dc:type
           rdf:resource="http://purl.org/dc/dcmitype/StillImage" />
        <dc:title></dc:title>
      </cc:Work>
    </rdf:RDF>
  </metadata>
  <defs
     id="defs5035" />
  <sodipodi:namedview
     pagecolor="#ffffff"
     bordercolor="#666666"
     borderopacity="1"
     objecttolerance="10"
     gridtolerance="10"
     guidetolerance="10"
     inkscape:pageopacity="0"
     inkscape:pageshadow="2"
     inkscape:window-width="1215"
     inkscape:window-height="776"
     id="namedview5033"
     showgrid="false"
     inkscape:zoom="10.216667"
     inkscape:cx="6.7047318"
     inkscape:cy="30"
     inkscape:window-x="65"
     inkscape:window-y="24"
     inkscape:window-maximized="1"
     inkscape:current-layer="svg5029" />
  <path
     d="m 32.426902,6.5012004 8.535401,8.5354006 q 0.495053,0.495053 0.496132,1.219482 0.0011,0.724429 -0.496088,1.219464 l -8.53509,8.535091 q -0.800165,0.800163 -1.886283,0.362712 -1.066912,-0.418246 -1.04773,-1.581172 l -9.5e-5,-5.257712 q -5.429479,0.210081 -9.258534,4.039136 -1.981208,1.981208 -3.010725,4.553499 -1.029517,2.57229 -1.029469,5.201145 4.8e-5,2.628856 1.029659,5.201184 1.029611,2.572328 3.010891,4.553609 1.98128,1.98128 4.553608,3.01089 2.572328,1.029611 5.201184,1.029659 2.628855,4.8e-5 5.201145,-1.029469 2.572291,-1.029517 4.553499,-3.010725 2.267133,-2.267132 3.295575,-5.277923 1.028444,-3.010787 0.609091,-6.210446 -0.05761,-0.32434 0.210168,-0.666811 0.266721,-0.266723 0.647605,-0.304057 l 5.238508,0.0193 q 0.324339,-0.01919 0.571865,0.209125 0.24753,0.228319 0.285941,0.571866 0.438582,4.590903 -1.132891,8.925712 -1.571473,4.334809 -4.84788,7.611217 -2.972346,2.972345 -6.838784,4.51502 -3.866437,1.542675 -7.79265,1.542603 -3.926212,-7.1e-5 -7.792707,-1.542887 Q 18.331754,50.933294 15.3593,47.96084 12.386847,44.988387 10.844031,41.121892 9.3012151,37.255398 9.301144,33.329186 q -7.2e-5,-3.926214 1.542603,-7.792651 1.542675,-3.866438 4.51502,-6.838784 2.800577,-2.800576 6.477105,-4.362459 3.676528,-1.561883 7.640081,-1.675969 l 0.01805,-4.9344375 q -0.03843,-1.1437238 1.066877,-1.6003392 1.066898,-0.4182076 1.867092,0.3819863 z"
     id="path5031"
     inkscape:connector-curvature="0"
     style="fill:#585859;fill-opacity:1" />
</svg>
