<?xml version="1.0" encoding="UTF-8" standalone="no"?>
<!-- Generated by IcoMoon.io -->

<svg
   xmlns:dc="http://purl.org/dc/elements/1.1/"
   xmlns:cc="http://creativecommons.org/ns#"
   xmlns:rdf="http://www.w3.org/1999/02/22-rdf-syntax-ns#"
   xmlns:svg="http://www.w3.org/2000/svg"
   xmlns="http://www.w3.org/2000/svg"
   xmlns:sodipodi="http://sodipodi.sourceforge.net/DTD/sodipodi-0.dtd"
   xmlns:inkscape="http://www.inkscape.org/namespaces/inkscape"
   version="1.1"
   width="32"
   height="32"
   viewBox="0 0 32 32"
   id="svg3078"
   inkscape:version="0.48.3.1 r9886"
   sodipodi:docname="drawer.svg"
   inkscape:export-filename="/tmp/encrypted-repo.png"
   inkscape:export-xdpi="101.25"
   inkscape:export-ydpi="101.25">
  <metadata
     id="metadata3086">
    <rdf:RDF>
      <cc:Work
         rdf:about="">
        <dc:format>image/svg+xml</dc:format>
        <dc:type
           rdf:resource="http://purl.org/dc/dcmitype/StillImage" />
        <dc:title></dc:title>
      </cc:Work>
    </rdf:RDF>
  </metadata>
  <defs
     id="defs3084" />
  <sodipodi:namedview
     pagecolor="#ffffff"
     bordercolor="#666666"
     borderopacity="1"
     objecttolerance="10"
     gridtolerance="10"
     guidetolerance="10"
     inkscape:pageopacity="0"
     inkscape:pageshadow="2"
     inkscape:window-width="1215"
     inkscape:window-height="776"
     id="namedview3082"
     showgrid="false"
     inkscape:zoom="19.15625"
     inkscape:cx="16.795208"
     inkscape:cy="16"
     inkscape:window-x="65"
     inkscape:window-y="24"
     inkscape:window-maximized="1"
     inkscape:current-layer="svg3078" />
  <path
     d="M 25.390939,3.5592215 27.024518,17.446585 25.190338,17.661959 23.730925,5.2596672 H 8.2675205 L 6.8081073,17.661959 4.9739273,17.446585 6.607506,3.5592215 z M 9.7798054,6.6693186 H 22.220195 v 1.555049 H 9.7798054 z m 0,3.110098 H 22.220195 V 11.334465 H 9.7798054 z m 0,3.1100974 H 22.220195 v 1.555049 H 9.7798054 z m 0,3.110098 H 22.220195 V 17.55466 H 9.7798054 z M 27.662865,19.109709 H 4.3371348 c -0.4276384,0 -0.6671159,0.332003 -0.5318266,0.737871 l 2.6187021,7.855328 c 0.1352892,0.405868 0.5955836,0.737871 1.023222,0.737871 H 24.552768 c 0.427638,0 0.887933,-0.332003 1.023222,-0.737871 l 2.618702,-7.855328 c 0.135289,-0.405868 -0.104188,-0.737871 -0.531827,-0.737871 z m -8.552768,3.110098 h -6.220194 v -1.555049 h 6.220194 v 1.555049 z"
     id="path3080"
     style="fill:#adadad;fill-opacity:1"
     inkscape:connector-curvature="0" />
  <g
     inkscape:groupmode="layer"
     id="layer1"
     inkscape:label="lock"
     style="display:inline">
    <path
       style="fill:#808080;fill-opacity:1"
       inkscape:connector-curvature="0"
       d="m 28.519983,21.879691 h -0.749999 v -2.25 c 0,-1.65675 -1.343251,-3 -3.000001,-3 -1.65675,0 -3,1.34325 -3,3 v 2.25 h -0.749999 c -0.412501,0 -0.750001,0.3375 -0.750001,0.75 v 5.249999 c 0,0.4125 0.3375,0.75 0.750001,0.75 h 7.499999 c 0.4125,0 0.75,-0.3375 0.75,-0.75 v -5.249999 c 0,-0.4125 -0.3375,-0.75 -0.75,-0.75 z m -3.75,4.499999 c -0.414375,0 -0.75,-0.335626 -0.75,-0.75 0,-0.414374 0.335625,-0.749999 0.75,-0.749999 0.414375,0 0.75,0.335625 0.75,0.749999 0,0.414374 -0.335625,0.75 -0.75,0.75 z m 1.5,-4.499999 h -2.999999 v -2.25 c 0,-0.82725 0.67275,-1.5 1.499999,-1.5 0.82725,0 1.5,0.67275 1.5,1.5 v 2.25 z"
       id="path3877" />
  </g>
</svg>
