<?xml version="1.0" encoding="UTF-8" standalone="no"?>
<!-- Generated by IcoMoon.io -->

<svg
   xmlns:dc="http://purl.org/dc/elements/1.1/"
   xmlns:cc="http://creativecommons.org/ns#"
   xmlns:rdf="http://www.w3.org/1999/02/22-rdf-syntax-ns#"
   xmlns:svg="http://www.w3.org/2000/svg"
   xmlns="http://www.w3.org/2000/svg"
   xmlns:sodipodi="http://sodipodi.sourceforge.net/DTD/sodipodi-0.dtd"
   xmlns:inkscape="http://www.inkscape.org/namespaces/inkscape"
   version="1.1"
   width="512"
   height="512"
   viewBox="0 0 512 512"
   id="svg3034"
   inkscape:version="0.48.4 r9939"
   sodipodi:docname="share.svg"
   inkscape:export-filename="/home/lin/Downloads/share.png"
   inkscape:export-xdpi="2.8125"
   inkscape:export-ydpi="2.8125">
  <metadata
     id="metadata3043">
    <rdf:RDF>
      <cc:Work
         rdf:about="">
        <dc:format>image/svg+xml</dc:format>
        <dc:type
           rdf:resource="http://purl.org/dc/dcmitype/StillImage" />
        <dc:title></dc:title>
      </cc:Work>
    </rdf:RDF>
  </metadata>
  <defs
     id="defs3041" />
  <sodipodi:namedview
     pagecolor="#ffffff"
     bordercolor="#666666"
     borderopacity="1"
     objecttolerance="10"
     gridtolerance="10"
     guidetolerance="10"
     inkscape:pageopacity="0"
     inkscape:pageshadow="2"
     inkscape:window-width="1855"
     inkscape:window-height="1056"
     id="namedview3039"
     showgrid="false"
     inkscape:zoom="0.88769531"
     inkscape:cx="190.6632"
     inkscape:cy="197.22969"
     inkscape:window-x="65"
     inkscape:window-y="24"
     inkscape:window-maximized="1"
     inkscape:current-layer="svg3034" />
  <g
     id="icomoon-ignore" />
  <path
     d="m 378.63147,335.52475 c -17.61191,0 -33.50786,7.76112 -44.85342,20.22497 L 165.69123,266.49064 c 0.51245,-3.41791 0.78622,-6.91948 0.78622,-10.49064 0,-3.57116 -0.27377,-7.07273 -0.78622,-10.48981 l 168.08682,-89.25908 c 11.34556,12.46302 27.24151,20.22414 44.85342,20.22414 34.46177,0 62.39824,-29.67019 62.39824,-66.27063 0,-36.600439 -27.93647,-66.270627 -62.39824,-66.270627 -34.46177,0 -62.39824,29.670188 -62.39824,66.270627 0,3.57116 0.27455,7.07273 0.78622,10.48981 l -168.08682,89.25991 c -11.34556,-12.46302 -27.24151,-20.22497 -44.85342,-20.22497 -34.46177,0 -62.398241,29.67102 -62.398241,66.27063 0,36.60127 27.936471,66.27063 62.398241,66.27063 17.61191,0 33.50786,-7.76112 44.85342,-20.22414 l 168.08682,89.25908 c -0.51167,3.41708 -0.78622,6.91865 -0.78622,10.48981 0,36.60127 27.93647,66.27063 62.39824,66.27063 34.46177,0 62.39824,-29.66936 62.39824,-66.27063 0,-36.59961 -27.93647,-66.27063 -62.39824,-66.27063 z"
     id="path3037"
     style="fill:#999999;fill-opacity:1"
     inkscape:connector-curvature="0" />
</svg>
